    <svg
      width="152"
      height="60"
      viewBox="0 0 152 60"
      fill="none"
      xmlns="http://www.w3.org/2000/svg"
    >
      <g id="&#208;&#155;&#208;&#190;&#208;&#179;&#208;&#190;_&#208;&#161;&#208;&#164;&#208;&#163;">
        <path
          id="Vector"
          d="M49.1825 34.6177V25.2087C50.2554 24.9967 51.2639 24.5366 52.1273 23.8653C52.9907 23.1941 53.6851 22.3302 54.1551 21.3426C54.6251 20.3551 54.8576 19.2714 54.8341 18.178C54.8106 17.0846 54.5317 16.0118 54.0196 15.0455C53.5076 14.0791 52.7766 13.2458 51.8852 12.6123C50.9937 11.9788 49.9664 11.5626 48.8854 11.3968C47.8043 11.2311 46.6995 11.3205 45.6592 11.6579C44.6189 11.9953 43.6719 12.5714 42.894 13.34L34.0541 7.83949C34.0875 7.56211 34.1047 7.28304 34.1059 7.00367C34.1046 5.30211 33.4843 3.65912 32.3608 2.3812C31.2374 1.10328 29.6874 0.277689 28 0.0584431C26.3126 -0.160803 24.6031 0.241268 23.1904 1.18965C21.7776 2.13803 20.7581 3.56796 20.322 5.21269C19.8859 6.85742 20.063 8.60462 20.8203 10.1284C21.5776 11.6521 22.8633 12.8484 24.4377 13.4939C26.012 14.1395 27.7674 14.1903 29.3765 13.6369C30.9855 13.0835 32.3383 11.9637 33.1825 10.4863L41.3696 15.5888C40.9637 16.5493 40.7768 17.5882 40.8226 18.63C40.8684 19.6718 41.1457 20.6903 41.6343 21.6115C42.1229 22.5328 42.8106 23.3336 43.6475 23.9558C44.4843 24.578 45.4492 25.006 46.4721 25.2087V34.6177C44.7628 34.9544 43.2401 35.9151 42.2003 37.3129C41.1606 38.7107 40.6783 40.4454 40.8475 42.1793C41.0166 43.9132 41.825 45.522 43.1152 46.6925C44.4055 47.863 46.0852 48.5114 47.8273 48.5114C49.5694 48.5114 51.2491 47.863 52.5394 46.6925C53.8296 45.522 54.638 43.9132 54.8071 42.1793C54.9763 40.4454 54.494 38.7107 53.4543 37.3129C52.4146 35.9151 50.8918 34.9544 49.1825 34.6177Z"
          fill="white"
        />
        <path
          id="Vector_2"
          d="M34.1067 29.9133C34.1077 28.5836 33.7306 27.2811 33.0195 26.1576C32.3084 25.0341 31.2925 24.1359 30.0903 23.5677C28.8882 22.9995 27.5493 22.7849 26.2298 22.9487C24.9102 23.1125 23.6645 23.648 22.6377 24.4929C21.611 25.3378 20.8456 26.4571 20.4308 27.7204C20.016 28.9837 19.9688 30.3389 20.2949 31.6279C20.621 32.917 21.3068 34.0868 22.2724 35.0009C23.2379 35.9151 24.4435 36.5359 25.7485 36.7909V46.1044C24.0526 46.4395 22.5402 47.3892 21.5017 48.7711L13.6171 43.8636C13.9567 42.9135 14.0875 41.9013 14.0005 40.8961C13.9135 39.8909 13.6107 38.9162 13.1127 38.0387C12.6148 37.1611 11.9335 36.4012 11.1153 35.8109C10.297 35.2205 9.36108 34.8136 8.37127 34.6178V25.2088C10.0805 24.8721 11.6033 23.9114 12.643 22.5136C13.6827 21.1158 14.165 19.3811 13.9959 17.6472C13.8268 15.9133 13.0184 14.3045 11.7281 13.134C10.4379 11.9635 8.75813 11.3151 7.01604 11.3151C5.27396 11.3151 3.59423 11.9635 2.30398 13.134C1.01373 14.3045 0.205332 15.9133 0.0362069 17.6472C-0.132918 19.3811 0.349343 21.1158 1.38907 22.5136C2.4288 23.9114 3.95157 24.8721 5.66081 25.2088V34.6178C4.57017 34.8321 3.54608 35.3026 2.67299 35.9904C1.79989 36.6783 1.1028 37.5638 0.639185 38.574C0.175569 39.5842 -0.0412929 40.6901 0.00648176 41.8006C0.0542564 42.9111 0.365299 43.9943 0.913963 44.9609C1.46263 45.9276 2.2332 46.75 3.16214 47.3603C4.09108 47.9706 5.15179 48.3514 6.25682 48.4712C7.36184 48.5911 8.47952 48.4466 9.51771 48.0496C10.5559 47.6526 11.4849 47.0145 12.228 46.188L20.3156 51.2268C20.1681 51.8016 20.0932 52.3926 20.0927 52.986C20.0925 54.3155 20.4702 55.6177 21.1818 56.7407C21.8934 57.8637 22.9095 58.7613 24.1118 59.3289C25.314 59.8965 26.6528 60.1106 27.9721 59.9464C29.2914 59.7821 30.5369 59.2462 31.5632 58.4012C32.5896 57.5561 33.3546 56.4367 33.7691 55.1735C34.1836 53.9103 34.2305 52.5553 33.9043 51.2664C33.5781 49.9776 32.8922 48.808 31.9267 47.8941C30.9612 46.9801 29.7558 46.3594 28.451 46.1044V36.7909C30.0442 36.4767 31.479 35.6192 32.5104 34.3649C33.5419 33.1106 34.1061 31.5372 34.1067 29.9133Z"
          fill="white"
        />
        <path
          id="Vector_3"
          d="M71.1488 11.7957C71.7227 11.7883 72.2893 11.9252 72.7966 12.1937C73.2766 12.4489 73.6794 12.8283 73.9628 13.2922L73.1667 13.8773C72.9815 13.5731 72.7297 13.3148 72.4303 13.1219C72.1309 12.929 71.7916 12.8065 71.438 12.7636C71.0844 12.7207 70.7257 12.7585 70.3888 12.8742C70.052 12.9899 69.7457 13.1805 69.4931 13.4316C69.0578 13.8999 68.8158 14.5156 68.8158 15.1549C68.8158 15.7943 69.0578 16.41 69.4931 16.8783C69.7457 17.1294 70.052 17.32 70.3888 17.4357C70.7257 17.5514 71.0844 17.5892 71.438 17.5463C71.7916 17.5034 72.1309 17.3809 72.4303 17.188C72.7297 16.9951 72.9815 16.7368 73.1667 16.4326L73.9628 17.0176C73.6857 17.4838 73.2847 17.8641 72.8045 18.1161C72.2987 18.3847 71.7334 18.5216 71.1608 18.5142C70.7104 18.5237 70.2627 18.4426 69.8443 18.2758C69.4259 18.1089 69.0452 17.8598 68.7249 17.543C68.0869 16.9048 67.7285 16.0394 67.7285 15.137C67.7285 14.2346 68.0869 13.3692 68.7249 12.7311C69.0427 12.4101 69.4226 12.1574 69.8415 11.9883C70.2603 11.8193 70.7092 11.7375 71.1608 11.748L71.1488 11.7957Z"
          fill="white"
        />
        <path
          id="Vector_4"
          d="M83.9983 11.748V18.3948H82.9476V13.8973L78.8759 18.5142H78.5098V11.8675H79.5605V16.353L83.6401 11.748H83.9983Z"
          fill="white"
        />
        <path
          id="Vector_5"
          d="M92.9798 12.8147H90.4882V14.558H91.3917C91.9571 14.5304 92.5115 14.7214 92.94 15.0913C93.1314 15.2688 93.2824 15.4855 93.3827 15.7265C93.483 15.9676 93.5302 16.2274 93.5211 16.4883C93.5306 16.7481 93.4836 17.0069 93.3832 17.2467C93.2829 17.4866 93.1317 17.7017 92.94 17.8774C92.5131 18.2474 91.96 18.4385 91.3957 18.4107H89.4375V11.8754H92.9838L92.9798 12.8147ZM90.4763 15.4495V17.4794H91.2922C91.5996 17.5011 91.9038 17.4058 92.144 17.2127C92.244 17.1197 92.3225 17.006 92.3741 16.8795C92.4256 16.753 92.449 16.6168 92.4425 16.4804C92.449 16.341 92.4257 16.2018 92.3742 16.0721C92.3228 15.9424 92.2443 15.8251 92.144 15.7281C91.9111 15.5296 91.6093 15.4309 91.3042 15.4535L90.4763 15.4495Z"
          fill="white"
        />
        <path
          id="Vector_6"
          d="M103.789 11.748V18.3948H102.739V13.8973L98.667 18.5142H98.3008V11.8675H99.3515V16.357L103.431 11.748H103.789Z"
          fill="white"
        />
        <path
          id="Vector_7"
          d="M110.401 11.8156C110.982 11.7939 111.55 11.9914 111.993 12.3688C112.193 12.5518 112.352 12.7762 112.457 13.0263C112.562 13.2764 112.611 13.5464 112.602 13.8176C112.61 14.0897 112.56 14.3604 112.455 14.6116C112.35 14.8628 112.192 15.0887 111.993 15.2743C111.553 15.6574 110.984 15.8581 110.401 15.8355H109.629V18.3629H108.578V11.8235H110.401V11.8156ZM109.629 12.7549V14.9041H110.381C110.536 14.9149 110.691 14.8944 110.837 14.8438C110.983 14.7932 111.118 14.7135 111.233 14.6096C111.422 14.3922 111.526 14.1138 111.526 13.8255C111.526 13.5373 111.422 13.2588 111.233 13.0415C111.118 12.9383 110.983 12.8591 110.837 12.8086C110.69 12.758 110.536 12.7371 110.381 12.7469L109.629 12.7549Z"
          fill="white"
        />
        <path
          id="Vector_8"
          d="M119.671 11.7957C120.244 11.7877 120.809 11.9246 121.315 12.1937C121.797 12.4476 122.201 12.8272 122.485 13.2922L121.689 13.8773C121.504 13.573 121.252 13.3147 120.952 13.1218C120.653 12.9289 120.314 12.8064 119.96 12.7635C119.607 12.7206 119.248 12.7584 118.911 12.8741C118.574 12.9898 118.268 13.1804 118.015 13.4315C117.58 13.8998 117.338 14.5155 117.338 15.1549C117.338 15.7943 117.58 16.41 118.015 16.8783C118.268 17.1294 118.574 17.3199 118.911 17.4356C119.248 17.5513 119.607 17.5891 119.96 17.5462C120.314 17.5033 120.653 17.3808 120.952 17.1879C121.252 16.995 121.504 16.7367 121.689 16.4325L122.485 17.0176C122.208 17.4838 121.807 17.864 121.327 18.1161C120.821 18.3843 120.256 18.5212 119.683 18.5141C119.232 18.5232 118.784 18.442 118.365 18.2752C117.946 18.1084 117.564 17.8594 117.243 17.5429C116.607 16.9038 116.25 16.0387 116.25 15.137C116.25 14.2352 116.607 13.3702 117.243 12.731C117.562 12.4103 117.943 12.1578 118.362 11.9888C118.781 11.8198 119.231 11.7378 119.683 11.7479L119.671 11.7957Z"
          fill="white"
        />
        <path
          id="Vector_9"
          d="M142.047 11.748V18.3948H141V13.8973L136.929 18.5142H136.562V11.8675H137.613V16.353L141.693 11.748H142.047Z"
          fill="white"
        />
        <path
          id="Vector_10"
          d="M151.91 11.7479V18.3947H150.86V13.8972L146.788 18.5141H146.422V11.8673H147.469V16.3529L151.552 11.7479H151.91ZM149.061 11.131C148.848 11.1399 148.636 11.1041 148.438 11.026C148.239 10.9478 148.06 10.829 147.91 10.6773C147.763 10.5236 147.648 10.3419 147.572 10.1429C147.496 9.94397 147.461 9.73183 147.469 9.51904H148.308C148.299 9.73587 148.373 9.94799 148.515 10.1121C148.588 10.1852 148.675 10.2423 148.771 10.28C148.867 10.3177 148.97 10.3351 149.073 10.331C149.175 10.3357 149.277 10.3187 149.373 10.281C149.468 10.2432 149.554 10.1857 149.626 10.1121C149.771 9.94944 149.846 9.73666 149.837 9.51904H150.653C150.66 9.73211 150.624 9.94442 150.547 10.1434C150.471 10.3423 150.355 10.5239 150.207 10.6773C150.058 10.8285 149.879 10.947 149.682 11.0252C149.484 11.1033 149.273 11.1393 149.061 11.131Z"
          fill="white"
        />
        <path
          id="Vector_11"
          d="M74.9627 29.957C74.9785 30.332 74.9095 30.7058 74.7606 31.0504C74.6117 31.395 74.3869 31.7015 74.103 31.947C73.4732 32.4607 72.6783 32.728 71.8661 32.6993V33.5829H70.8154V32.6993C70.005 32.7235 69.2132 32.4534 68.5865 31.9391C68.303 31.693 68.0782 31.3865 67.9287 31.0421C67.7793 30.6977 67.7089 30.3242 67.7228 29.949C67.7073 29.5765 67.777 29.2054 67.9267 28.864C68.0763 28.5225 68.302 28.2198 68.5865 27.9789C69.2199 27.473 70.0133 27.2104 70.8233 27.2386V26.4147H71.8741V27.2386C72.6844 27.209 73.4783 27.4717 74.1109 27.9789C74.3961 28.2192 74.6223 28.5218 74.772 28.8634C74.9218 29.205 74.9911 29.5764 74.9746 29.949L74.9627 29.957ZM68.7736 29.9968C68.7616 30.2437 68.805 30.4903 68.9008 30.7182C68.9965 30.9462 69.1421 31.1498 69.3268 31.3142C69.7479 31.6502 70.2775 31.8201 70.8154 31.7918V28.1739C70.2775 28.1456 69.7479 28.3155 69.3268 28.6515C69.1429 28.8202 68.9989 29.0277 68.9053 29.2591C68.8116 29.4904 68.7707 29.7397 68.7855 29.9888L68.7736 29.9968ZM71.8462 31.7799C72.3825 31.8102 72.9112 31.6415 73.3308 31.3062C73.6825 30.954 73.88 30.4766 73.88 29.9789C73.88 29.4811 73.6825 29.0037 73.3308 28.6515C72.9121 28.3141 72.3831 28.1439 71.8462 28.1739V31.7918V31.7799Z"
          fill="white"
        />
        <path
          id="Vector_12"
          d="M102.966 26.6654C103.547 26.643 104.116 26.8405 104.558 27.2187C104.758 27.4009 104.917 27.6244 105.023 27.8738C105.129 28.1232 105.179 28.3926 105.171 28.6634C105.179 28.936 105.128 29.207 105.023 29.4583C104.917 29.7096 104.758 29.9353 104.558 30.1202C104.12 30.5068 103.55 30.7093 102.966 30.6853H102.273V33.2127H101.223V26.6734H102.966V26.6654ZM102.273 27.6047V29.754H102.946C103.101 29.7642 103.256 29.7431 103.402 29.6918C103.549 29.6405 103.683 29.5601 103.798 29.4555C103.901 29.3514 103.981 29.2266 104.032 29.0894C104.084 28.9522 104.105 28.8057 104.096 28.6595C104.104 28.5133 104.082 28.3671 104.031 28.23C103.979 28.093 103.9 27.9681 103.798 27.8634C103.682 27.7603 103.548 27.6811 103.402 27.6306C103.255 27.58 103.1 27.559 102.946 27.5689L102.273 27.6047Z"
          fill="white"
        />
        <path
          id="Vector_13"
          d="M110.824 32.1859H107.879L107.417 33.2764H106.295L109.177 26.6296H109.535L112.416 33.2764H111.286L110.824 32.1859ZM109.356 28.5719L108.269 31.2864H110.454L109.356 28.5719Z"
          fill="white"
        />
        <path
          id="Vector_14"
          d="M123.148 29.2603H123.785C124.389 29.23 124.982 29.4355 125.437 29.8335C125.642 30.022 125.804 30.2525 125.912 30.5095C126.02 30.7664 126.071 31.0436 126.062 31.322C126.073 31.6001 126.022 31.8772 125.914 32.1337C125.806 32.3902 125.643 32.6199 125.437 32.8066C124.977 33.1967 124.387 33.3986 123.785 33.3718H122.098V26.8285H123.148V29.2603ZM123.148 30.2116V32.4683H123.785C123.947 32.478 124.11 32.4551 124.263 32.4011C124.416 32.3471 124.557 32.2631 124.677 32.1539C124.88 31.9282 124.992 31.6354 124.992 31.332C124.992 31.0286 124.88 30.7358 124.677 30.5101C124.558 30.399 124.417 30.3135 124.264 30.2588C124.111 30.204 123.948 30.1812 123.785 30.1917L123.148 30.2116Z"
          fill="white"
        />
        <path
          id="Vector_15"
          d="M138.418 29.165H139.111C139.715 29.1361 140.307 29.343 140.763 29.7421C140.968 29.9298 141.13 30.1597 141.238 30.4159C141.345 30.6722 141.397 30.9488 141.387 31.2267C141.398 31.5048 141.348 31.782 141.24 32.0385C141.132 32.2951 140.969 32.5247 140.763 32.7113C140.304 33.1035 139.713 33.3057 139.111 33.2764H137.352V26.7411H138.402L138.418 29.165ZM138.418 30.1162V32.3769H139.111C139.273 32.3861 139.436 32.3626 139.589 32.3079C139.742 32.2532 139.882 32.1684 140.002 32.0585C140.205 31.8328 140.317 31.5401 140.317 31.2366C140.317 30.9332 140.205 30.6405 140.002 30.4147C139.882 30.3048 139.742 30.22 139.589 30.1654C139.436 30.1107 139.273 30.0872 139.111 30.0963L138.418 30.1162ZM143.262 33.3003H142.211V26.7491H143.262V33.3003Z"
          fill="white"
        />
        <path
          id="Vector_16"
          d="M151.91 26.6296V33.2764H150.86V28.7789L146.788 33.3839H146.422V26.7411H147.469V31.2267L151.548 26.6296H151.91ZM149.061 25.9968C148.848 26.0057 148.636 25.9699 148.438 25.8918C148.239 25.8136 148.06 25.6948 147.91 25.5431C147.762 25.3892 147.646 25.207 147.569 25.0073C147.493 24.8076 147.457 24.5946 147.465 24.3809H148.304C148.296 24.5989 148.37 24.8122 148.511 24.9779C148.584 25.0504 148.671 25.107 148.767 25.144C148.863 25.181 148.966 25.1976 149.069 25.1928C149.171 25.1983 149.273 25.182 149.368 25.145C149.464 25.1079 149.55 25.0509 149.622 24.9779C149.767 24.8136 149.842 24.5996 149.833 24.3809H150.653C150.66 24.5946 150.625 24.8076 150.548 25.0073C150.472 25.207 150.356 25.3892 150.207 25.5431C150.058 25.6943 149.879 25.8128 149.682 25.891C149.484 25.9691 149.273 26.0051 149.061 25.9968Z"
          fill="white"
        />
        <path
          id="Vector_17"
          d="M73.657 41.5989L71.3883 46.8606C71.236 47.2819 70.9531 47.6436 70.5807 47.8927C70.2084 48.1419 69.7662 48.2656 69.3186 48.2457C69.0383 48.2468 68.7589 48.2134 68.4868 48.1462V47.2387L69.1117 47.2865C69.371 47.3081 69.6307 47.2479 69.8541 47.1144C70.0775 46.981 70.2536 46.7808 70.3574 46.5422L68.041 41.5989H69.2351L70.9107 45.376L72.447 41.5989H73.657Z"
          fill="white"
        />
        <path
          id="Vector_18"
          d="M82.266 48.1422H81.2153V45.1491H77.9277V48.1422H76.877V41.5989H77.9277V44.2059H81.2153V41.5989H82.266V48.1422Z"
          fill="white"
        />
        <path
          id="Vector_19"
          d="M91.7737 41.4954V48.1422H90.723V43.6447L86.6513 48.2497H86.2852V41.5989H87.3359V46.0885L91.4155 41.4915L91.7737 41.4954Z"
          fill="white"
        />
        <path
          id="Vector_20"
          d="M98.6158 44.5201C98.9756 44.6319 99.2932 44.8497 99.5272 45.145C99.7497 45.4447 99.8647 45.8107 99.8536 46.1838C99.861 46.4404 99.8129 46.6956 99.7126 46.9319C99.6123 47.1682 99.4622 47.3801 99.2725 47.553C98.8472 47.9204 98.2976 48.1112 97.7362 48.0863H95.7461V41.551H97.2267C97.7429 41.5232 98.2496 41.6973 98.6396 42.0366C98.8157 42.1942 98.9551 42.3885 99.0479 42.6058C99.1408 42.8231 99.1848 43.0581 99.177 43.2943C99.1835 43.5264 99.1367 43.7569 99.0401 43.9681C98.9435 44.1792 98.7997 44.3654 98.6197 44.5122L98.6158 44.5201ZM96.761 42.4704V44.2336H97.1113C97.3824 44.2503 97.6501 44.1667 97.8635 43.9987C97.9482 43.9141 98.0155 43.8136 98.0613 43.703C98.1072 43.5923 98.1308 43.4737 98.1308 43.354C98.1308 43.2342 98.1072 43.1156 98.0613 43.005C98.0155 42.8943 97.9482 42.7938 97.8635 42.7092C97.6516 42.5381 97.3831 42.4529 97.1113 42.4704H96.761ZM97.6247 47.1709C97.9321 47.1926 98.2363 47.0973 98.4765 46.9042C98.5765 46.8112 98.655 46.6975 98.7065 46.571C98.7581 46.4445 98.7814 46.3083 98.775 46.1719C98.7803 46.0338 98.7565 45.8962 98.7051 45.7679C98.6536 45.6397 98.5757 45.5237 98.4765 45.4276C98.2436 45.2291 97.9418 45.1304 97.6366 45.153H96.761V47.1709H97.6366H97.6247Z"
          fill="white"
        />
        <path
          id="Vector_21"
          d="M112.396 41.4357C112.978 41.4136 113.547 41.6127 113.988 41.993C114.188 42.1754 114.346 42.399 114.451 42.6485C114.556 42.8979 114.606 43.1672 114.597 43.4377C114.605 43.7099 114.555 43.9806 114.45 44.2318C114.345 44.483 114.187 44.7089 113.988 44.8945C113.548 45.2776 112.979 45.4783 112.396 45.4557H111.676V47.9671H110.625V41.4437H112.396V41.4357ZM111.676 42.395V44.5442H112.376C112.531 44.554 112.686 44.5326 112.832 44.4813C112.979 44.4301 113.113 44.3499 113.228 44.2457C113.33 44.141 113.41 44.0162 113.461 43.8791C113.512 43.7421 113.535 43.5958 113.527 43.4497C113.536 43.3035 113.514 43.1569 113.462 43.0197C113.411 42.8825 113.331 42.7578 113.228 42.6537C113.113 42.5494 112.979 42.4693 112.832 42.418C112.686 42.3668 112.531 42.3454 112.376 42.3552L111.676 42.395Z"
          fill="white"
        />
        <path
          id="Vector_22"
          d="M120.249 41.4676C120.822 41.4595 121.387 41.5964 121.893 41.8656C122.374 42.1222 122.778 42.5029 123.063 42.9681L122.267 43.5532C122.082 43.2489 121.83 42.9906 121.531 42.7977C121.231 42.6048 120.892 42.4823 120.538 42.4394C120.185 42.3965 119.826 42.4343 119.489 42.55C119.152 42.6657 118.846 42.8563 118.593 43.1074C118.158 43.5757 117.916 44.1914 117.916 44.8308C117.916 45.4701 118.158 46.0858 118.593 46.5542C118.847 46.8038 119.153 46.9931 119.49 47.108C119.826 47.2228 120.185 47.2601 120.538 47.2173C120.891 47.1745 121.23 47.0525 121.529 46.8605C121.829 46.6685 122.081 46.4114 122.267 46.1084L123.063 46.6935C122.785 47.1588 122.384 47.5387 121.905 47.792C121.398 48.0605 120.831 48.1974 120.257 48.19C119.807 48.199 119.359 48.1178 118.941 47.951C118.523 47.7842 118.142 47.5352 117.821 47.2188C117.185 46.5796 116.828 45.7146 116.828 44.8129C116.828 43.9111 117.185 43.0461 117.821 42.4069C118.139 42.0863 118.519 41.8338 118.938 41.6648C119.357 41.4958 119.806 41.4138 120.257 41.4238L120.249 41.4676Z"
          fill="white"
        />
        <path
          id="Vector_23"
          d="M131.512 41.4952V48.142H130.462V43.6445L126.374 48.2495H126.008V41.5987H127.059V46.0883L131.15 41.4952H131.512Z"
          fill="white"
        />
        <path
          id="Vector_24"
          d="M138.357 42.5461H136.932V48.1422H135.886V42.5461H134.473V41.5989H138.357V42.5461Z"
          fill="white"
        />
        <path
          id="Vector_25"
          d="M151.91 42.5461H150.485V48.1422H149.434V42.5461H148.021V41.5989H151.91V42.5461Z"
          fill="white"
        />
        <path
          id="Vector_26"
          d="M81.6764 32.2416H79.3242V30.1719H81.6764V29.2604H79.3242V27.5848H81.6764V26.6455H78.2734V33.1809H81.6764V32.2416Z"
          fill="white"
        />
        <path
          id="Vector_27"
          d="M97.7969 32.3371H95.2656V30.2675H97.7134V29.356H95.2656V27.6804H97.7969V26.7411H94.2148V33.2764H97.7969V32.3371Z"
          fill="white"
        />
        <path
          id="Vector_28"
          d="M106.751 47.1471H104.256V45.0774H106.7V44.166H104.256V42.4903H106.751V41.551H103.205V48.0864H106.751V47.1471Z"
          fill="white"
        />
        <path
          id="Vector_29"
          d="M145.172 47.1987H142.732V45.129H145.172V44.2216H142.732V42.546H145.172V41.6027H141.682V48.142H145.172V47.1987Z"
          fill="white"
        />
        <path
          id="Vector_30"
          d="M126.707 11.8753H127.758V18.4107H126.707V11.8753ZM132.343 18.4107H131.045L128.013 14.932L130.755 11.8713H132.04L129.326 14.932L132.343 18.4107Z"
          fill="white"
        />
        <path
          id="Vector_31"
          d="M128.567 14.5182H127.066V15.3859H128.567V14.5182Z"
          fill="white"
        />
        <path
          id="Vector_32"
          d="M134.206 33.3678H133.139V30.3748H129.852V33.3678H128.801V26.8285H129.852V29.4355H133.139V26.8285H134.19L134.206 33.3678Z"
          fill="white"
        />
        <path
          id="Vector_33"
          d="M90.9508 32.2416V34.5819H89.9159V33.1848H85.498V34.5819H84.4473V32.2416H84.9527C85.4386 31.7887 85.7922 31.2123 85.9756 30.5739C86.2467 29.5989 86.3675 28.5883 86.3338 27.5769V26.6455H90.1547V32.2535L90.9508 32.2416ZM86.107 32.2416H89.0761V27.5769H87.309C87.305 29.7898 86.907 31.35 86.1229 32.2416H86.107Z"
          fill="white"
        />
        <path
          id="Vector_34"
          d="M119.078 26.8167V33.3202H118.015V27.7481H116.101C116.101 28.6212 116.032 29.493 115.894 30.355C115.807 30.9504 115.616 31.5258 115.328 32.0546C115.129 32.4209 114.845 32.7346 114.501 32.97C114.172 33.1769 113.8 33.3062 113.414 33.3481V32.369C113.713 32.2903 113.985 32.1339 114.204 31.9158C114.423 31.6977 114.58 31.4257 114.66 31.1272C114.974 30.0677 115.108 28.9633 115.058 27.8595V26.7928L119.078 26.8167Z"
          fill="white"
        />
      </g>
    </svg>